# Blender 4.5.4 LTS
# www.blender.org
mtllib Lake8_Collider.mtl
o Circle
v 0.966019 0.000000 -1.604557
v 0.934185 0.000000 -1.618833
v 0.849839 0.000000 -1.620980
v 0.781373 0.000000 -1.622590
v 0.723338 0.000000 -1.590802
v 0.616806 0.000000 -1.487751
v 0.507178 0.000000 -1.397844
v 0.460174 0.000000 -1.336840
v 0.384915 0.000000 -1.273481
v 0.212100 0.000000 -1.119312
v 0.171459 0.000000 -1.062126
v 0.126099 0.000000 -1.019953
v -0.021498 0.000000 -0.887966
v -0.081287 0.000000 -0.861750
v -0.114041 0.000000 -0.877285
v -0.216260 0.000000 -0.796758
v -0.294895 0.000000 -0.712741
v -0.391900 0.000000 -0.615997
v -0.493321 0.000000 -0.520196
v -0.561114 0.000000 -0.439002
v -0.567509 0.000000 -0.332603
v -0.628644 0.000000 -0.102615
v -0.629102 0.000000 0.040106
v -0.613916 0.000000 0.353115
v -0.637105 0.000000 0.632014
v -0.666212 0.000000 0.725919
v -0.686664 0.000000 0.730922
v -0.823949 0.000000 0.898467
v -1.082697 0.000000 1.240795
v -0.977571 0.000000 1.317129
v -0.529824 0.000000 1.343520
v -0.493843 0.000000 1.368101
v -0.358916 0.000000 1.366553
v -0.287627 0.000000 1.346464
v 0.061451 0.000000 1.348611
v 0.171919 0.000000 1.244582
v 0.261772 0.000000 1.211522
v 0.522307 0.000000 0.963377
v 0.513569 0.000000 0.929471
v 0.563119 0.000000 0.879922
v 0.576013 0.000000 0.829291
v 0.836158 0.000000 -1.630101
v 0.920503 0.000000 -1.627954
v 0.952337 0.000000 -1.613678
v 0.754603 0.000000 0.627052
v 0.767300 0.000000 0.520653
v 0.775872 0.000000 0.406367
v 0.773726 0.000000 0.313112
v 0.784905 0.000000 0.239277
v 0.861546 0.000000 0.152715
v 0.872601 0.000000 0.021278
v 0.871666 0.000000 -0.053553
v 0.907334 0.000000 -0.100132
v 0.911195 0.000000 -0.144299
v 0.949836 0.000000 -0.185199
v 0.962651 0.000000 -0.229658
v 0.970566 0.000000 -0.436011
v 1.045492 0.000000 -0.521006
v 1.107945 0.000000 -1.306206
v 1.075954 0.000000 -1.323566
v 1.066151 0.000000 -1.407525
v 1.042481 0.000000 -1.566589
v 1.016016 0.000000 -1.561160
v 1.010581 0.000000 -1.588287
v 0.767691 0.000000 -1.631711
v 0.709657 0.000000 -1.599923
v 0.603125 0.000000 -1.496872
v 0.493496 0.000000 -1.406965
v 0.446492 0.000000 -1.345961
v 0.371233 0.000000 -1.282603
v 0.198418 0.000000 -1.128433
v 0.157778 0.000000 -1.071247
v 0.112417 0.000000 -1.029074
v -0.035180 0.000000 -0.897087
v -0.094968 0.000000 -0.870871
v -0.127723 0.000000 -0.886406
v -0.229942 0.000000 -0.805879
v -0.308577 0.000000 -0.721862
v -0.405582 0.000000 -0.625118
v -0.507003 0.000000 -0.529317
v -0.574796 0.000000 -0.448123
v -0.581190 0.000000 -0.341724
v -0.642325 0.000000 -0.111736
v -0.642784 0.000000 0.030985
v -0.627598 0.000000 0.343994
v -0.650787 0.000000 0.622893
v -0.679894 0.000000 0.716798
v -0.700345 0.000000 0.721801
v -0.837631 0.000000 0.889346
v -1.096379 0.000000 1.231674
v -0.991252 0.000000 1.308008
v -0.543506 0.000000 1.334399
v -0.507525 0.000000 1.358980
v -0.372598 0.000000 1.357432
v -0.301308 0.000000 1.337343
v 0.047770 0.000000 1.339490
v 0.158237 0.000000 1.235461
v 0.248091 0.000000 1.202400
v 0.508625 0.000000 0.954256
v 0.499888 0.000000 0.920350
v 0.549438 0.000000 0.870801
v 0.562332 0.000000 0.820170
v 0.740922 0.000000 0.617931
v 0.753619 0.000000 0.511532
v 0.762191 0.000000 0.397246
v 0.760044 0.000000 0.303991
v 0.771223 0.000000 0.230156
v 0.847864 0.000000 0.143594
v 0.858920 0.000000 0.012157
v 0.857984 0.000000 -0.062674
v 0.893652 0.000000 -0.109253
v 0.897513 0.000000 -0.153420
v 0.936154 0.000000 -0.194320
v 0.948969 0.000000 -0.238779
v 0.956885 0.000000 -0.445132
v 1.031811 0.000000 -0.530127
v 1.094263 0.000000 -1.315327
v 1.062273 0.000000 -1.332687
v 1.052470 0.000000 -1.416646
v 1.028800 0.000000 -1.575710
v 1.002334 0.000000 -1.570281
v 0.996899 0.000000 -1.597408
v 0.836158 -1.000000 -1.630101
v 0.920503 -1.000000 -1.627954
v 0.952337 -1.000000 -1.613678
v 0.767691 -1.000000 -1.631711
v 0.709657 -1.000000 -1.599923
v 0.603125 -1.000000 -1.496872
v 0.493496 -1.000000 -1.406965
v 0.446492 -1.000000 -1.345961
v 0.371233 -1.000000 -1.282603
v 0.198418 -1.000000 -1.128433
v 0.157778 -1.000000 -1.071247
v 0.112417 -1.000000 -1.029074
v -0.035180 -1.000000 -0.897087
v -0.094968 -1.000000 -0.870871
v -0.127723 -1.000000 -0.886406
v -0.229942 -1.000000 -0.805879
v -0.308577 -1.000000 -0.721862
v -0.405582 -1.000000 -0.625118
v -0.507003 -1.000000 -0.529317
v -0.574796 -1.000000 -0.448123
v -0.581190 -1.000000 -0.341724
v -0.642325 -1.000000 -0.111736
v -0.642784 -1.000000 0.030985
v -0.627598 -1.000000 0.343994
v -0.650787 -1.000000 0.622893
v -0.679894 -1.000000 0.716798
v -0.700345 -1.000000 0.721801
v -0.837631 -1.000000 0.889346
v -1.096379 -1.000000 1.231674
v -0.991252 -1.000000 1.308008
v -0.543506 -1.000000 1.334399
v -0.507525 -1.000000 1.358980
v -0.372598 -1.000000 1.357432
v -0.301308 -1.000000 1.337343
v 0.047770 -1.000000 1.339490
v 0.158237 -1.000000 1.235461
v 0.248091 -1.000000 1.202400
v 0.508625 -1.000000 0.954256
v 0.499888 -1.000000 0.920350
v 0.549438 -1.000000 0.870801
v 0.562332 -1.000000 0.820170
v 0.740922 -1.000000 0.617931
v 0.753619 -1.000000 0.511532
v 0.762191 -1.000000 0.397246
v 0.760044 -1.000000 0.303991
v 0.771223 -1.000000 0.230156
v 0.847864 -1.000000 0.143594
v 0.858920 -1.000000 0.012157
v 0.857984 -1.000000 -0.062674
v 0.893652 -1.000000 -0.109253
v 0.897513 -1.000000 -0.153420
v 0.936154 -1.000000 -0.194320
v 0.948969 -1.000000 -0.238779
v 0.956885 -1.000000 -0.445132
v 1.031811 -1.000000 -0.530127
v 1.094263 -1.000000 -1.315327
v 1.062273 -1.000000 -1.332687
v 1.052470 -1.000000 -1.416646
v 1.028800 -1.000000 -1.575710
v 1.002334 -1.000000 -1.570281
v 0.996899 -1.000000 -1.597408
vn -0.0000 1.0000 -0.0000
vn -0.0000 -1.0000 -0.0000
vn 0.0235 -0.0000 -0.9997
vn -0.2009 -0.0000 -0.9796
vn 0.2712 -0.0000 0.9625
vn -0.7921 -0.0000 -0.6103
vn 0.0254 -0.0000 -0.9997
vn 0.9805 -0.0000 -0.1965
vn -0.0061 -0.0000 1.0000
vn -0.6440 -0.0000 -0.7650
vn 0.4092 -0.0000 -0.9124
vn 0.3430 -0.0000 -0.9393
vn 0.6856 -0.0000 0.7280
vn -0.6657 -0.0000 -0.7462
vn 0.3453 -0.0000 0.9385
vn -0.8151 -0.0000 -0.5793
vn 0.6897 -0.0000 0.7241
vn -0.6809 -0.0000 -0.7324
vn 0.9684 -0.0000 -0.2495
vn -0.6666 -0.0000 -0.7454
vn 0.7071 -0.0000 0.7071
vn -0.4016 -0.0000 -0.9158
vn 0.9691 -0.0000 0.2468
vn 0.4285 -0.0000 -0.9035
vn 0.7496 -0.0000 0.6619
vn -0.6188 -0.0000 -0.7855
vn 0.9930 -0.0000 0.1185
vn -0.7301 -0.0000 -0.6833
vn 0.9972 -0.0000 0.0748
vn -0.7062 -0.0000 -0.7081
vn 0.9997 -0.0000 -0.0230
vn -0.6867 -0.0000 -0.7270
vn 0.9887 -0.0000 0.1497
vn -0.7676 -0.0000 -0.6409
vn 0.7487 -0.0000 0.6629
vn -0.9982 -0.0000 -0.0600
vn 0.9965 -0.0000 0.0838
vn -0.9664 -0.0000 -0.2569
vn 0.9999 -0.0000 -0.0125
vn -1.0000 -0.0000 -0.0032
vn 0.7940 -0.0000 0.6080
vn -0.9988 -0.0000 0.0485
vn 0.9962 -0.0000 0.0871
vn -0.9966 -0.0000 -0.0829
vn 0.7269 -0.0000 0.6867
vn -0.9552 -0.0000 -0.2961
vn 0.9609 -0.0000 0.2770
vn -0.2376 -0.0000 -0.9714
vn 0.9993 -0.0000 0.0383
vn -0.7735 -0.0000 -0.6338
vn 0.7501 -0.0000 0.6613
vn -0.7978 -0.0000 -0.6030
vn 0.9969 -0.0000 0.0793
vn -0.5876 -0.0000 0.8092
vn 0.4770 -0.0000 -0.8789
vn -0.0588 -0.0000 0.9983
vn -0.4804 -0.0000 -0.8770
vn 0.9933 -0.0000 -0.1160
vn -0.5641 -0.0000 0.8257
vn -0.6953 -0.0000 -0.7188
vn 0.9891 -0.0000 -0.1472
vn 0.0115 -0.0000 0.9999
vn -0.6341 -0.0000 -0.7732
vt 0.000000 0.000000
s 0
g off
f 17/1/1 16/1/1 77/1/1 78/1/1
f 18/1/1 17/1/1 78/1/1 79/1/1
f 41/1/1 45/1/1 103/1/1 102/1/1
f 19/1/1 18/1/1 79/1/1 80/1/1
f 46/1/2 45/1/2 103/1/2 104/1/2
f 20/1/1 19/1/1 80/1/1 81/1/1
f 47/1/2 46/1/2 104/1/2 105/1/2
f 21/1/1 20/1/1 81/1/1 82/1/1
f 48/1/2 47/1/2 105/1/2 106/1/2
f 22/1/1 21/1/1 82/1/1 83/1/1
f 49/1/2 48/1/2 106/1/2 107/1/2
f 23/1/1 22/1/1 83/1/1 84/1/1
f 50/1/2 49/1/2 107/1/2 108/1/2
f 24/1/1 23/1/1 84/1/1 85/1/1
f 51/1/2 50/1/2 108/1/2 109/1/2
f 25/1/1 24/1/1 85/1/1 86/1/1
f 52/1/2 51/1/2 109/1/2 110/1/2
f 26/1/1 25/1/1 86/1/1 87/1/1
f 53/1/2 52/1/2 110/1/2 111/1/2
f 27/1/1 26/1/1 87/1/1 88/1/1
f 54/1/2 53/1/2 111/1/2 112/1/2
f 28/1/1 27/1/1 88/1/1 89/1/1
f 2/1/1 1/1/1 44/1/1 43/1/1
f 55/1/2 54/1/2 112/1/2 113/1/2
f 29/1/1 28/1/1 89/1/1 90/1/1
f 3/1/1 2/1/1 43/1/1 42/1/1
f 56/1/2 55/1/2 113/1/2 114/1/2
f 30/1/1 29/1/1 90/1/1 91/1/1
f 4/1/1 3/1/1 42/1/1 65/1/1
f 57/1/2 56/1/2 114/1/2 115/1/2
f 31/1/2 30/1/2 91/1/2 92/1/2
f 5/1/1 4/1/1 65/1/1 66/1/1
f 58/1/2 57/1/2 115/1/2 116/1/2
f 32/1/1 31/1/1 92/1/1 93/1/1
f 6/1/1 5/1/1 66/1/1 67/1/1
f 59/1/2 58/1/2 116/1/2 117/1/2
f 33/1/2 32/1/2 93/1/2 94/1/2
f 7/1/1 6/1/1 67/1/1 68/1/1
f 60/1/1 59/1/1 117/1/1 118/1/1
f 34/1/2 33/1/2 94/1/2 95/1/2
f 8/1/1 7/1/1 68/1/1 69/1/1
f 61/1/2 60/1/2 118/1/2 119/1/2
f 35/1/2 34/1/2 95/1/2 96/1/2
f 9/1/1 8/1/1 69/1/1 70/1/1
f 62/1/2 61/1/2 119/1/2 120/1/2
f 36/1/2 35/1/2 96/1/2 97/1/2
f 10/1/1 9/1/1 70/1/1 71/1/1
f 63/1/1 62/1/1 120/1/1 121/1/1
f 37/1/2 36/1/2 97/1/2 98/1/2
f 11/1/1 10/1/1 71/1/1 72/1/1
f 64/1/2 63/1/2 121/1/2 122/1/2
f 38/1/2 37/1/2 98/1/2 99/1/2
f 12/1/1 11/1/1 72/1/1 73/1/1
f 1/1/1 64/1/1 122/1/1 44/1/1
f 39/1/2 38/1/2 99/1/2 100/1/2
f 13/1/1 12/1/1 73/1/1 74/1/1
f 40/1/2 39/1/2 100/1/2 101/1/2
f 14/1/1 13/1/1 74/1/1 75/1/1
f 41/1/2 40/1/2 101/1/2 102/1/2
f 15/1/1 14/1/1 75/1/1 76/1/1
f 16/1/1 15/1/1 76/1/1 77/1/1
f 65/1/3 42/1/3 123/1/3 126/1/3
f 126/1/2 123/1/2 124/1/2 125/1/2 183/1/2 182/1/2 181/1/2 180/1/2 179/1/2 178/1/2 177/1/2 176/1/2 175/1/2 174/1/2 173/1/2 172/1/2 171/1/2 170/1/2 169/1/2 168/1/2 167/1/2 166/1/2 165/1/2 164/1/2 163/1/2 162/1/2 161/1/2 160/1/2 159/1/2 158/1/2 157/1/2 156/1/2 155/1/2 154/1/2 153/1/2 152/1/2 151/1/2 150/1/2 149/1/2 148/1/2 147/1/2 146/1/2 145/1/2 144/1/2 143/1/2 142/1/2 141/1/2 140/1/2 139/1/2 138/1/2 137/1/2 136/1/2 135/1/2 134/1/2 133/1/2 132/1/2 131/1/2 130/1/2 129/1/2 128/1/2 127/1/2
f 121/1/4 120/1/4 181/1/4 182/1/4
f 95/1/5 94/1/5 155/1/5 156/1/5
f 69/1/6 68/1/6 129/1/6 130/1/6
f 42/1/7 43/1/7 124/1/7 123/1/7
f 122/1/8 121/1/8 182/1/8 183/1/8
f 96/1/9 95/1/9 156/1/9 157/1/9
f 70/1/10 69/1/10 130/1/10 131/1/10
f 43/1/11 44/1/11 125/1/11 124/1/11
f 44/1/12 122/1/12 183/1/12 125/1/12
f 97/1/13 96/1/13 157/1/13 158/1/13
f 71/1/14 70/1/14 131/1/14 132/1/14
f 98/1/15 97/1/15 158/1/15 159/1/15
f 72/1/16 71/1/16 132/1/16 133/1/16
f 99/1/17 98/1/17 159/1/17 160/1/17
f 73/1/18 72/1/18 133/1/18 134/1/18
f 100/1/19 99/1/19 160/1/19 161/1/19
f 74/1/20 73/1/20 134/1/20 135/1/20
f 101/1/21 100/1/21 161/1/21 162/1/21
f 75/1/22 74/1/22 135/1/22 136/1/22
f 102/1/23 101/1/23 162/1/23 163/1/23
f 76/1/24 75/1/24 136/1/24 137/1/24
f 103/1/25 102/1/25 163/1/25 164/1/25
f 77/1/26 76/1/26 137/1/26 138/1/26
f 104/1/27 103/1/27 164/1/27 165/1/27
f 78/1/28 77/1/28 138/1/28 139/1/28
f 105/1/29 104/1/29 165/1/29 166/1/29
f 79/1/30 78/1/30 139/1/30 140/1/30
f 106/1/31 105/1/31 166/1/31 167/1/31
f 80/1/32 79/1/32 140/1/32 141/1/32
f 107/1/33 106/1/33 167/1/33 168/1/33
f 81/1/34 80/1/34 141/1/34 142/1/34
f 108/1/35 107/1/35 168/1/35 169/1/35
f 82/1/36 81/1/36 142/1/36 143/1/36
f 109/1/37 108/1/37 169/1/37 170/1/37
f 83/1/38 82/1/38 143/1/38 144/1/38
f 110/1/39 109/1/39 170/1/39 171/1/39
f 84/1/40 83/1/40 144/1/40 145/1/40
f 111/1/41 110/1/41 171/1/41 172/1/41
f 85/1/42 84/1/42 145/1/42 146/1/42
f 112/1/43 111/1/43 172/1/43 173/1/43
f 86/1/44 85/1/44 146/1/44 147/1/44
f 113/1/45 112/1/45 173/1/45 174/1/45
f 87/1/46 86/1/46 147/1/46 148/1/46
f 114/1/47 113/1/47 174/1/47 175/1/47
f 88/1/48 87/1/48 148/1/48 149/1/48
f 115/1/49 114/1/49 175/1/49 176/1/49
f 89/1/50 88/1/50 149/1/50 150/1/50
f 116/1/51 115/1/51 176/1/51 177/1/51
f 90/1/52 89/1/52 150/1/52 151/1/52
f 117/1/53 116/1/53 177/1/53 178/1/53
f 91/1/54 90/1/54 151/1/54 152/1/54
f 118/1/55 117/1/55 178/1/55 179/1/55
f 92/1/56 91/1/56 152/1/56 153/1/56
f 66/1/57 65/1/57 126/1/57 127/1/57
f 119/1/58 118/1/58 179/1/58 180/1/58
f 93/1/59 92/1/59 153/1/59 154/1/59
f 67/1/60 66/1/60 127/1/60 128/1/60
f 120/1/61 119/1/61 180/1/61 181/1/61
f 94/1/62 93/1/62 154/1/62 155/1/62
f 68/1/63 67/1/63 128/1/63 129/1/63
f 2/1/1 3/1/1 4/1/1 5/1/1 6/1/1 7/1/1 8/1/1 9/1/1 10/1/1 11/1/1 12/1/1 13/1/1 14/1/1 15/1/1 16/1/1 17/1/1 18/1/1 19/1/1 20/1/1 21/1/1 22/1/1 23/1/1 24/1/1 25/1/1 26/1/1 27/1/1 28/1/1 29/1/1 30/1/1 31/1/1 32/1/1 33/1/1 34/1/1 35/1/1 36/1/1 37/1/1 38/1/1 39/1/1 40/1/1 41/1/1 45/1/1 46/1/1 47/1/1 48/1/1 49/1/1 50/1/1 51/1/1 52/1/1 53/1/1 54/1/1 55/1/1 56/1/1 57/1/1 58/1/1 59/1/1 60/1/1 61/1/1 62/1/1 63/1/1 64/1/1 1/1/1
